<svg width="468" height="221" viewBox="0 0 468 221" fill="none" xmlns="http://www.w3.org/2000/svg">
<path fill-rule="evenodd" clip-rule="evenodd" d="M142.464 1.85179C141.765 2.11059 140.541 2.30413 139.745 2.28165C138.353 2.24327 135.989 2.53498 133.087 3.10247C132.333 3.24996 130.757 3.50986 129.584 3.67929C128.411 3.84871 127.178 4.15905 126.843 4.36905C126.188 4.77808 126.005 4.83016 123.492 5.31486C121.909 5.61971 121.05 5.90539 117.461 7.31782C116.556 7.67367 115.542 8.02348 115.208 8.09476C114.873 8.16659 113.516 8.70447 112.192 9.29006C110.868 9.87564 109.598 10.3938 109.37 10.4409C108.318 10.6597 100.991 14.5658 100.828 14.9952C100.726 15.2616 100.418 15.34 100.142 15.1695C99.8666 14.999 99.6407 15.1355 99.6407 15.4727C99.6407 15.8099 99.3939 15.9333 99.0924 15.7469C98.7908 15.5604 98.544 15.6696 98.544 15.9887C98.544 16.3078 98.1915 16.5693 97.7605 16.5693C97.3301 16.5693 96.6398 16.9071 96.2275 17.3194C95.8146 17.7323 94.9335 18.2422 94.2689 18.4527C93.6049 18.6638 93.061 19.0663 93.061 19.3476C93.061 19.6289 92.7375 19.8591 92.3422 19.8591C91.9463 19.8591 91.1447 20.2912 90.5602 20.8187C89.9752 21.3461 88.8182 22.1286 87.9892 22.5563C87.1602 22.9839 86.4814 23.5394 86.4814 23.7899C86.4814 24.0405 86.2198 24.2456 85.9002 24.2456C85.2647 24.2456 82.6328 26.1953 77.0654 30.7923C73.071 34.0904 73.0693 34.0322 77.2194 36.4415C78.6094 37.248 81.7747 39.4122 84.2542 41.2506L86.1139 42.6295C87.6725 43.7851 89.816 43.7385 91.3229 42.5161C92.7309 41.374 93.9657 40.25 94.0661 40.0186C94.167 39.7872 94.4915 39.5981 94.7882 39.5981C95.0848 39.5981 96.182 38.9461 97.2259 38.15C101.401 34.9655 116.939 27.1828 122.733 25.374C124.96 24.6787 127.09 23.8634 127.467 23.5624C127.844 23.2614 128.152 23.1511 128.152 23.3178C128.152 23.4845 128.954 23.3842 129.934 23.0952C134.348 21.7935 147.375 20.0549 152.004 20.1498C156.442 20.2408 158.332 20.3981 164.889 21.22C165.944 21.3527 168.312 21.8292 170.151 22.2788C171.989 22.729 174.21 23.2449 175.086 23.4259C177.089 23.8398 177.46 23.95 179.145 24.6316C181.724 25.6744 187.094 27.6489 187.643 27.7558C187.945 27.8145 190.991 29.3026 194.412 31.0621C200.311 34.0969 207.405 38.5223 212.381 42.271L213.035 42.7636C213.963 43.4629 215.258 43.397 216.11 42.6071C216.92 41.8571 217.705 41.243 217.855 41.243C218.284 41.243 224.881 36.6454 225.331 36.0341C225.599 35.6684 225.739 35.6684 225.75 36.0341C225.76 36.3357 225.991 36.2298 226.263 35.7983C226.536 35.3674 227.172 34.9539 227.676 34.8799C228.18 34.8059 228.728 34.6096 228.894 34.444C229.339 33.9988 221.903 26.9871 220.987 26.9871C220.725 26.9871 220.103 26.555 219.606 26.0276C217.495 23.7916 207.852 17.1176 206.731 17.1176C206.336 17.1176 206.011 16.9049 206.011 16.6455C206.011 15.8861 192.937 9.6596 187.885 8.0125C185.339 7.18237 182.517 6.19709 181.612 5.8226C179.682 5.02317 172.149 3.10683 169.001 2.6139C162.725 1.63134 144.476 1.10719 142.464 1.85179ZM351.126 19.131C351.015 19.2418 349.963 19.4408 348.788 19.5729C347.613 19.7045 346.034 19.9611 345.28 20.1421C344.527 20.3236 343.663 20.5259 343.361 20.5922C343.06 20.658 342.505 20.9053 342.128 21.1405C341.751 21.3763 341.442 21.4443 341.442 21.2918C341.442 20.9086 334.35 24.4808 332.669 25.7101C328.913 28.4582 322.403 35.823 320.47 39.5092C318.438 43.3852 316.493 48.451 316.016 51.1124C315.88 51.8663 315.627 52.8533 315.453 53.3056C315.058 54.3304 314.738 57.2052 313.744 68.6581C312.205 86.3897 310.091 99.22 306.351 113.52C304.464 120.735 300.765 132.561 298.931 137.242C298.32 138.801 299.47 140.486 301.144 140.486H307.738H315.73C316.934 140.486 317.962 139.617 318.162 138.43C318.353 137.299 318.647 135.88 318.816 135.277C318.985 134.674 319.108 134.057 319.089 133.906C319.07 133.755 319.311 133.324 319.624 132.947C319.937 132.57 320.052 132.261 319.879 132.261C319.707 132.261 319.925 131.402 320.364 130.352C320.803 129.302 321.131 128.253 321.094 128.022C321.056 127.79 321.073 127.477 321.132 127.327C321.191 127.176 321.329 126.682 321.439 126.23C321.838 124.592 322.213 123.182 322.679 121.569C322.961 120.594 323.851 119.921 324.866 119.915L339.847 119.836L346.956 119.799C352.658 119.768 357.717 123.449 359.443 128.883C361.039 133.908 362.492 138.389 362.673 138.841C362.853 139.293 362.961 139.848 362.913 140.075C362.865 140.301 367.369 140.486 372.921 140.486C383.482 140.486 383.404 140.504 382.542 138.293C382.483 138.142 382.461 137.842 382.494 137.626C382.526 137.41 382.284 136.547 381.955 135.707C381.627 134.867 381.24 133.44 381.094 132.535C380.949 131.631 380.627 130.681 380.381 130.424C379.658 129.672 380.619 127.216 383.63 122.118C386.868 116.637 392.041 106.491 391.598 106.491C391.434 106.491 391.607 105.936 391.983 105.257C392.359 104.579 392.615 103.839 392.551 103.612C392.487 103.386 392.696 103.201 393.015 103.201C393.334 103.201 393.454 102.971 393.281 102.691C393.107 102.41 393.22 102.023 393.531 101.83C393.843 101.638 393.966 101.268 393.805 101.008C393.645 100.748 393.768 100.378 394.079 100.186C394.391 99.9931 394.504 99.606 394.33 99.3253C394.157 99.0446 394.317 98.8148 394.687 98.8148C395.056 98.8148 395.196 98.6525 394.998 98.454C394.799 98.2555 394.912 97.762 395.248 97.3574C395.584 96.9527 395.675 96.6216 395.45 96.6216C395.225 96.6216 395.303 96.3068 395.622 95.9225C395.941 95.5381 396.321 94.4892 396.466 93.5922C396.612 92.6952 396.772 91.961 396.821 91.961C396.87 91.961 397.021 91.2208 397.155 90.3161C397.29 89.4114 397.634 88.0543 397.92 87.3004C399.624 82.8098 399.846 65.7965 398.296 58.5145C398.167 57.9114 397.884 56.431 397.666 55.2247C397.449 54.0184 396.985 52.685 396.635 52.2617C396.285 51.8384 396.06 51.4069 396.136 51.3021C396.211 51.198 396.255 51.051 396.232 50.9754C396.21 50.8997 396.085 50.2642 395.955 49.5629C395.825 48.8616 395.421 47.7513 395.057 47.0956C394.692 46.4398 394.447 45.7188 394.511 45.4923C394.575 45.2659 394.34 45.0811 393.988 45.0811C393.636 45.0811 393.512 44.9172 393.713 44.7165C393.913 44.5158 393.428 43.2207 392.635 41.8379C389.004 35.5127 383.59 29.4254 378.451 25.8894C375.559 23.9001 369.744 21.0972 367.761 20.7375C367.007 20.601 366.39 20.4519 366.39 20.4063C366.39 20.2764 364.359 19.8153 362.552 19.5346C360.353 19.1935 351.381 18.8766 351.126 19.131ZM362.03 39.2044C365.777 39.7943 370.597 43.0705 374.34 47.5709C375.684 49.1862 378.787 55.064 379.055 56.5012C379.13 56.902 379.372 57.6422 379.594 58.1461C379.816 58.6505 380.097 59.7515 380.218 60.5931C380.339 61.4353 380.771 63.2299 381.177 64.5815C382.629 69.4027 381.439 87.3673 379.295 93.0055C378.998 93.788 378.886 94.4284 379.047 94.4284C379.208 94.4284 379.144 94.7371 378.905 95.1138C378.666 95.491 378.445 95.9225 378.414 96.0733C377.86 98.7967 371.769 110.682 371.212 110.126C371.053 109.966 370.825 104.58 370.705 98.1568C370.25 73.7568 368.724 66.1826 362.981 59.8261C359.139 55.5723 353.536 54.1128 347.895 55.8953C345.586 56.6245 341.538 60.0536 341.4 61.3948C341.377 61.6201 341.216 62.2978 341.043 62.9009C340.869 63.5041 340.625 66.2801 340.499 69.0694C340.273 74.0732 340.288 74.1411 341.542 74.1444C347.981 74.1598 352.408 79.7881 352.753 88.397C352.943 93.1607 351.408 96.3359 347.984 98.2626C345.727 99.5331 344.93 99.6438 336.723 99.8253C327.937 100.02 327.889 100.014 327.567 98.7808C327.389 98.0987 327.462 97.131 327.73 96.6298C328.347 95.4778 330.296 81.4818 330.748 74.9636C331.076 70.2312 331.165 69.2744 331.789 63.7234C332.592 56.5872 335.643 49.1846 339.409 45.2385C343.441 41.0132 347.853 38.9763 353.934 38.5316C356.563 38.3397 359.084 38.3529 359.536 38.5618C359.989 38.7701 361.111 39.0596 362.03 39.2044ZM147.187 41.9563C146.527 42.2003 145.553 42.2858 145.021 42.1471C144.489 42.0078 143.926 42.1022 143.769 42.356C143.612 42.6105 143.056 42.8155 142.534 42.8122C138.998 42.7908 132.994 45.1019 127.108 48.752C122.734 51.4644 113.348 60.3585 113.348 61.7912C113.348 62.2507 113.154 62.6268 112.916 62.6268C111.874 62.6268 106.637 73.1981 106.261 76.0602C106.221 76.3618 105.897 77.5955 105.542 78.8017C105.151 80.1253 104.898 84.7991 104.903 90.5903C104.909 98.7989 105.086 100.819 106.126 104.572C107.444 109.325 111.942 119.102 112.812 119.102C113.107 119.102 113.348 119.472 113.348 119.924C113.348 120.377 113.595 120.747 113.897 120.747C114.198 120.747 114.445 120.987 114.445 121.281C114.445 121.976 122.375 130 124.863 131.822C126.919 133.328 134.254 137.214 135.406 137.407C135.79 137.471 136.596 137.785 137.199 138.107C142.79 141.083 157.413 141.662 165.474 139.227C171.647 137.361 177.959 134.167 183.307 130.201C188.046 126.687 194.423 119.868 193.625 119.168C193.351 118.928 191.523 117.531 189.562 116.064C187.602 114.598 184.43 111.995 182.513 110.282L181.267 109.169C180.035 108.067 178.139 108.186 177.054 109.433C173.436 113.59 169.641 116.853 166.44 118.559C164.697 119.489 163.147 120.258 162.995 120.27C162.844 120.282 161.419 120.638 159.829 121.061C153.672 122.7 145.3 121.607 139.704 118.434C134.997 115.764 129.784 110.229 127.423 105.394C123.813 98.0039 122.811 88.0763 125.056 81.9545C125.526 80.6731 125.811 79.6242 125.688 79.6242C125.567 79.6242 126.438 77.9097 127.626 75.814C129.754 72.0576 133.505 68.0501 137.401 65.3683C138.496 64.6144 139.475 63.8111 139.576 63.583C139.678 63.3549 139.986 63.3078 140.262 63.4783C140.537 63.6488 140.763 63.4855 140.763 63.1159C140.763 62.7463 140.918 62.5988 141.107 62.788C141.296 62.9772 142.244 62.8001 143.214 62.3949C144.184 61.9897 146.733 61.3624 148.879 61.0005C152.54 60.3826 154.561 60.5021 161.4 61.738C163.881 62.1865 170.729 66.4013 174.375 69.7257C176.709 71.8526 178.85 73.5929 179.134 73.5929C179.418 73.5929 180.092 73.1427 180.631 72.5922C181.171 72.0417 182.784 70.7664 184.216 69.7575C185.649 68.7491 186.821 67.7189 186.821 67.4683C186.821 67.2183 187.071 67.0132 187.377 67.0132C188.072 67.0132 193.949 63.1422 193.948 62.686C193.947 62.5029 193.207 61.4891 192.304 60.4336C191.401 59.3781 190.661 58.3583 190.66 58.1674C190.659 57.8812 188.279 55.796 182.534 51.0477C181.35 50.0701 174.623 46.062 173.981 45.9523C173.654 45.8964 172.894 45.5811 172.291 45.2516C171.013 44.5531 163.917 42.3199 163.353 42.4388C163.142 42.4832 162.353 42.3506 161.599 42.1449C159.563 41.5879 148.571 41.4442 147.187 41.9563ZM41.3675 42.1274C41.2787 42.2156 40.3521 42.4081 39.3076 42.5551C30.7338 43.7624 24.8104 46.4656 17.2417 52.6246C10.1066 58.4312 3.61633 68.3637 1.21092 77.1568C-0.491012 83.3784 -0.369839 101.755 1.39131 104.567C1.58157 104.871 1.78335 105.42 1.83873 105.785C2.10027 107.506 4.40589 113.711 5.00792 114.313C5.38022 114.685 5.66753 115.132 5.6456 115.305C5.52278 116.298 10.3363 122.964 13.4655 126.132C17.0821 129.794 21.7054 133.358 22.8398 133.358C23.1628 133.358 23.4265 133.571 23.4265 133.831C23.4265 134.28 29.4156 137.203 30.7502 137.405C31.0951 137.458 31.6258 137.657 31.9302 137.847C32.2345 138.038 34.085 138.634 36.0424 139.172C38.7127 139.905 41.5869 140.146 47.5519 140.136C54.5866 140.125 56.0588 139.953 60.3312 138.653C68.4241 136.189 76.2424 131.534 82.0621 125.715C85.2872 122.489 88.6746 117.998 88.6746 116.947C88.6746 116.624 88.9361 116.36 89.2552 116.36C89.5744 116.36 89.6835 116.114 89.4971 115.812C89.3106 115.511 89.3857 115.264 89.6637 115.264C90.6479 115.264 94.3572 105.654 94.9549 101.556C95.1089 100.501 95.4927 98.0335 95.8086 96.0733C96.4863 91.8585 96.1244 84.5315 94.9631 78.9574C93.9926 74.298 91.5433 67.5615 90.8201 67.5615C90.5449 67.5615 90.3628 67.3767 90.4155 67.1503C90.5684 66.4912 89.0918 63.7234 88.5863 63.7234C88.3335 63.7234 88.1263 63.3325 88.1263 62.8554C88.1263 61.7424 76.9228 50.5641 75.8076 50.5641C75.3453 50.5641 74.967 50.3684 74.967 50.1299C74.967 48.6648 63.3041 43.5815 57.6955 42.6017C55.5182 42.2217 41.6751 41.8192 41.3675 42.1274ZM244.073 42.4459C242.056 42.8166 239.887 43.2996 238.635 43.6566C238.334 43.7427 237.354 44.0157 236.457 44.263C230.856 45.8092 222.321 51.3126 217.216 56.67C214.282 59.7487 209.301 66.4156 209.301 67.2632C209.301 67.4338 208.779 68.7426 208.141 70.172C205.835 75.3359 205.554 76.0876 205.29 77.8088C205.142 78.7699 204.868 79.804 204.681 80.1067C203.743 81.6244 203.321 93.4414 204.037 98.1678C204.84 103.475 206.192 108.403 207.167 109.577C207.51 109.991 207.632 110.329 207.438 110.329C206.855 110.329 210.415 116.947 212.894 120.473C216.588 125.726 226.553 134.566 227.6 133.519C227.789 133.33 227.944 133.429 227.944 133.74C227.944 134.255 233.789 137.181 235.267 137.405C235.612 137.458 236.141 137.654 236.442 137.841C238.685 139.233 245.447 140.206 252.891 140.209C259.302 140.212 265.991 139.043 267.833 137.599C268.21 137.303 268.518 137.212 268.518 137.396C268.518 137.786 274.645 135.146 275.079 134.569C275.24 134.355 276.295 133.711 277.422 133.137C283.476 130.059 291.208 121.739 295.038 114.183C299.323 105.729 300.482 100.508 300.395 90.0419C300.335 82.8186 300.222 81.3431 299.512 78.5276C299.322 77.7737 299.05 76.5948 298.907 75.9072C297.32 68.271 289.494 57.3987 280.892 50.8805C275.599 46.8691 267.101 43.2514 261.264 42.5249C257.554 42.0632 246.432 42.0117 244.073 42.4459ZM55.1804 62.3016C59.6052 63.4372 63.4154 65.4977 66.924 68.6515C70.0646 71.4747 74.4187 77.2232 74.4187 78.5457C74.4187 79.0386 74.6035 79.6264 74.8299 79.8528C75.0564 80.0787 75.2719 80.49 75.3097 80.7663C75.3475 81.0427 75.4292 81.3305 75.4917 81.4062C75.5543 81.4818 75.7226 82.2643 75.8662 83.1459C76.0093 84.0276 76.3443 85.156 76.6108 85.6533C76.8773 86.1512 77.004 88.7611 76.8927 91.4527C76.6827 96.5333 76.522 97.6096 75.6299 99.9114C75.3377 100.665 75.0663 101.466 75.0268 101.691C74.7894 103.049 72.2491 107.585 70.8547 109.14C69.95 110.149 69.0102 111.327 68.7668 111.756C67.7108 113.62 60.375 118.066 56.3614 119.275C52.3621 120.48 45.0231 120.865 41.7947 120.039C35.8834 118.527 30.8659 115.564 27.0184 111.312C21.3205 105.016 18.6963 97.6074 19.1925 89.2167C19.822 78.5654 25.0424 69.968 34.0247 64.7876C35.8856 63.7146 37.5969 62.8061 37.8277 62.7688C38.0585 62.7321 39.539 62.4371 41.1175 62.1136C46.9416 60.9199 49.9573 60.9605 55.1804 62.3016ZM260.569 62.3888C261.621 62.828 262.612 63.1735 262.772 63.1565C262.931 63.1389 264.581 63.9345 266.437 64.9236C269.669 66.647 276.194 72.3235 276.194 73.4125C276.194 73.6998 276.635 74.4125 277.172 74.997C280.543 78.6614 282.856 89.8879 281.514 96.0733C280.975 98.5587 278.453 105.3 277.72 106.217C277.478 106.518 276.286 108.047 275.07 109.614C265.841 121.504 247.839 123.925 235.282 114.965C227.095 109.123 222.642 99.6828 223.174 89.3012C223.456 83.8072 223.495 83.6021 224.831 80.5168C225.336 79.3489 225.75 78.3039 225.75 78.1948C225.75 78.0851 226.532 76.7248 227.488 75.1714C230.923 69.5903 235.398 65.904 242.021 63.2031C245.349 61.8455 246.477 61.6716 252.21 61.6333C256.702 61.6026 259.237 61.8317 260.569 62.3888ZM87.578 137.175C87.578 137.488 87.3148 137.744 86.993 137.744C86.6706 137.744 85.1123 138.793 83.5288 140.075C80.1485 142.811 78.8918 143.727 75.3623 146.029C73.2114 147.432 72.8593 147.879 73.3972 148.527C75.9984 151.661 94.4932 165.159 96.1869 165.159C96.5784 165.159 96.8991 165.369 96.8991 165.624C96.8991 165.881 97.948 166.554 99.2294 167.122C100.511 167.691 101.888 168.471 102.29 168.856C102.69 169.241 103.225 169.429 103.476 169.273C103.728 169.118 104.016 169.185 104.118 169.423C104.349 169.966 110.543 172.895 114.171 174.177C115.679 174.709 117.416 175.38 118.032 175.667C118.648 175.954 119.512 176.243 119.951 176.31C120.391 176.376 121.075 176.633 121.472 176.881C121.869 177.129 122.34 177.186 122.519 177.008C122.697 176.83 123.174 176.958 123.578 177.294C123.983 177.63 124.314 177.721 124.314 177.496C124.314 177.271 124.628 177.349 125.013 177.668C127.208 179.489 146.627 181.929 154.995 181.435C164.671 180.863 175.498 179.091 179.693 177.39C180.145 177.207 180.958 176.971 181.5 176.865C184.112 176.355 193.813 172.363 199.706 169.373C206.442 165.955 217.246 159.046 220.995 155.759C226.605 150.841 229.04 148.508 229.04 148.05C229.04 147.774 228.793 147.702 228.492 147.888C228.19 148.074 227.944 147.951 227.944 147.614C227.944 147.277 227.697 147.153 227.395 147.34C227.094 147.526 226.847 147.403 226.847 147.065C226.847 146.728 226.6 146.605 226.299 146.791C225.997 146.978 225.75 146.874 225.75 146.56C225.75 146.246 225.134 145.835 224.38 145.646C223.626 145.457 223.009 145.135 223.009 144.931C223.009 144.727 222.207 144.088 221.227 143.51C220.247 142.932 218.951 141.994 218.348 141.426C217.745 140.856 216.601 139.922 215.805 139.349C214.583 138.467 214.261 138.424 213.725 139.07C213.376 139.49 211.19 141.138 208.866 142.733C206.542 144.327 204.517 145.772 204.367 145.943C204.216 146.114 203.167 146.739 202.036 147.333C200.906 147.926 199.98 148.602 199.98 148.835C199.98 149.068 199.657 149.259 199.262 149.259C198.868 149.259 197.159 150.093 195.465 151.113C189.674 154.6 174.736 159.971 167.904 161.023C159.804 162.27 156.007 162.523 149.262 162.264C142.719 162.013 139.603 161.611 131.716 160.001C127.556 159.151 118.438 155.697 111.703 152.419C107.331 150.291 103.63 148.395 103.479 148.206C103.328 148.018 101.477 146.764 99.3665 145.421C97.2555 144.077 95.405 142.842 95.2542 142.677C95.1034 142.513 93.623 141.337 91.9644 140.066C90.3058 138.794 88.6406 137.495 88.2634 137.18C87.7924 136.784 87.578 136.783 87.578 137.175Z" fill="#286D45"/>
<circle cx="147.768" cy="83.4713" r="16.7232" fill="#AF9866"/>
<path d="M71.3696 34.6076L71.5226 34.4545L74.5288 31.4475C75.6582 30.3177 76.879 29.2833 78.1788 28.3546L83.5419 24.5227L92.9484 18.25L106.013 11.4545L120.645 5.70455L130.052 3.09091L140.839 1.36442C142.355 1.12186 143.887 1 145.422 1H154.09L166.11 1.52273L174.994 3.09091L188.058 7.27273L202.69 13.5455L212.619 19.2955L221.503 25.5682L226.729 29.75C230.012 33.0339 229.561 38.4796 225.783 41.1791L219.458 45.6984C218.829 46.1478 217.967 46.0765 217.42 45.5297C217.355 45.4646 217.285 45.4052 217.209 45.3524L212.097 41.7727L206.348 38.1136L201.907 35.1521C200.689 34.3397 199.411 33.6208 198.084 33.0015L192.239 30.2727L184.4 27.1364L176.561 24.5227L169.245 22.9545L157.748 21.3864H149.387L140.503 22.4318L133.187 23.4773L126.916 25.0455L115.942 29.2273L104.445 34.9773L98.1742 38.6364L87.3001 46.4057C87.2335 46.4533 87.1709 46.5064 87.113 46.5643L86.8868 46.7905C86.7527 46.9246 86.5709 47 86.3812 47C86.2339 47 86.0902 46.9545 85.9697 46.8697L72.6496 37.4936C72.2474 37.2105 71.8703 36.8933 71.5226 36.5455L71.3696 36.3924C71.1329 36.1557 71 35.8347 71 35.5C71 35.1653 71.1329 34.8443 71.3696 34.6076Z" fill="#AF9866" stroke="#AD9766"/>
<path d="M72.3696 147.392L72.5226 147.545L75.5288 150.553C76.6582 151.682 77.879 152.717 79.1788 153.645L84.5419 157.477L93.9484 163.75L107.013 170.545L121.645 176.295L131.052 178.909L141.839 180.636C143.355 180.878 144.887 181 146.422 181H155.09L167.11 180.477L175.994 178.909L189.058 174.727L203.69 168.455L213.619 162.705L222.503 156.432L227.729 152.25C231.012 148.966 230.561 143.52 226.783 140.821L220.458 136.302C219.829 135.852 218.967 135.924 218.42 136.47C218.355 136.535 218.285 136.595 218.209 136.648L213.097 140.227L207.348 143.886L202.907 146.848C201.689 147.66 200.411 148.379 199.084 148.999L193.239 151.727L185.4 154.864L177.561 157.477L170.245 159.045L158.748 160.614H150.387L141.503 159.568L134.187 158.523L127.916 156.955L116.942 152.773L105.445 147.023L99.1742 143.364L88.3001 135.594C88.2335 135.547 88.1709 135.494 88.113 135.436L87.8868 135.209C87.7527 135.075 87.5709 135 87.3812 135C87.2339 135 87.0902 135.046 86.9697 135.13L73.6496 144.506C73.2474 144.789 72.8703 145.107 72.5226 145.455L72.3696 145.608C72.1329 145.844 72 146.165 72 146.5C72 146.835 72.1329 147.156 72.3696 147.392Z" fill="#AF9866" stroke="#AD9766"/>
<path d="M247.824 177.822C247.824 173.87 248.641 170.355 250.275 167.277C251.947 164.161 254.303 161.748 257.343 160.038C260.383 158.29 263.879 157.416 267.831 157.416C272.847 157.416 277.065 158.765 280.485 161.463C283.905 164.123 286.109 167.752 287.097 172.35H275.07C274.348 170.83 273.341 169.671 272.049 168.873C270.795 168.075 269.332 167.676 267.66 167.676C265.076 167.676 263.005 168.607 261.447 170.469C259.927 172.293 259.167 174.744 259.167 177.822C259.167 180.938 259.927 183.427 261.447 185.289C263.005 187.113 265.076 188.025 267.66 188.025C269.332 188.025 270.795 187.626 272.049 186.828C273.341 186.03 274.348 184.871 275.07 183.351H287.097C286.109 187.949 283.905 191.597 280.485 194.295C277.065 196.955 272.847 198.285 267.831 198.285C263.879 198.285 260.383 197.43 257.343 195.72C254.303 193.972 251.947 191.559 250.275 188.481C248.641 185.365 247.824 181.812 247.824 177.822ZM303.559 166.764V173.319H316.384V181.812H303.559V189.051H318.094V198H292.387V157.815H318.094V166.764H303.559ZM360.836 198H349.664L334.787 175.542V198H323.615V157.815H334.787L349.664 180.558V157.815H360.836V198ZM397.467 157.815V166.707H386.751V198H375.579V166.707H364.977V157.815H397.467ZM412.772 166.764V173.319H425.597V181.812H412.772V189.051H427.307V198H401.6V157.815H427.307V166.764H412.772ZM453.177 198L445.197 183.18H444V198H432.828V157.815H450.441C453.671 157.815 456.407 158.385 458.649 159.525C460.891 160.627 462.582 162.166 463.722 164.142C464.862 166.08 465.432 168.265 465.432 170.697C465.432 173.433 464.672 175.846 463.152 177.936C461.67 179.988 459.485 181.451 456.597 182.325L465.66 198H453.177ZM444 175.542H449.529C451.049 175.542 452.189 175.181 452.949 174.459C453.709 173.737 454.089 172.692 454.089 171.324C454.089 170.032 453.69 169.025 452.892 168.303C452.132 167.543 451.011 167.163 449.529 167.163H444V175.542Z" fill="url(#paint0_linear_93_425)"/>
<defs>
<linearGradient id="paint0_linear_93_425" x1="357" y1="135" x2="357" y2="221" gradientUnits="userSpaceOnUse">
<stop offset="0.0913462" stop-color="#AF9866"/>
<stop offset="1" stop-color="#286D45"/>
</linearGradient>
</defs>
</svg>
